<svg width="108" height="128" viewBox="0 0 108 128" fill="none" xmlns="http://www.w3.org/2000/svg">
<rect x="2" y="2" width="104" height="124" rx="12" fill="white" stroke="#5E6C84" stroke-width="4"/>
<path fill-rule="evenodd" clip-rule="evenodd" d="M52 100H89V105H52C52 107 52 110 52 110L41 102.5L52 95C52 95 52 98 52 100ZM78 26H50V31H78C78 33 78 36 78 36L89 28.5L78 21C78 21 78 24 78 26ZM50 63H89V68H50V63ZM43 63H48V68H43V63ZM43 26H48V31H43V26Z" fill="#5E6C84"/>
<path d="M15.736 37L21.912 28.616L16.152 20.488H21.56L23.32 23.144L24.664 25.288H24.92L26.296 23.144L28.088 20.488H33.048L27.288 28.36L33.464 37H28.024L25.944 33.896L24.504 31.688H24.248L22.84 33.896L20.728 37H15.736Z" fill="#36B37E"/>
<path d="M28.76 57.488H33.592L25.816 76.656C25.3253 77.872 24.6747 78.8 23.864 79.44C23.0533 80.08 21.944 80.4 20.536 80.4H17.272V76.72H21.24L22.264 73.904L15.608 57.488H20.696L23.096 64.432L24.6 69.232H24.856L26.296 64.432L28.76 57.488Z" fill="#00B8D9"/>
<path d="M17.112 111V107.064L26.296 98.168H17.432V94.488H31.768V98.424L22.584 107.32H32.088V111H17.112Z" fill="#FF5630"/>
</svg>
