<svg width="643" height="491" viewBox="0 0 643 491" fill="none" xmlns="http://www.w3.org/2000/svg">
<path d="M532.73 142.7L320.86 91.67V491L532.73 435.54V142.7Z" fill="#E0E0E0"/>
<path opacity="0.1" d="M532.73 142.7L320.86 91.67V491L532.73 435.54V142.7Z" fill="black"/>
<path d="M108.99 142.7L320.86 91.67V491L108.99 436.65V142.7Z" fill="#E0E0E0"/>
<path opacity="0.17" d="M108.99 140.93L320.86 89.91V491L108.99 436.65V140.93Z" fill="black"/>
<path d="M319.09 93.44L430.68 0.709991L642.54 55.07L530.96 144.46L319.09 93.44Z" fill="#E0E0E0"/>
<path d="M2.04999 57.94L110.76 144.46L322.62 93.44L215.03 2.48001L2.04999 57.94Z" fill="#E0E0E0"/>
<path opacity="0.05" d="M0.290009 56.18L111.64 144.46L323.51 93.44L213.26 0.709991L0.290009 56.18Z" fill="black"/>
<path d="M108.99 142.7V436.65L320.86 491L323.72 199.27L108.99 142.7Z" fill="#E0E0E0"/>
<path d="M532.73 435.54L320.86 491V199.27L532.73 142.7V435.54Z" fill="#E0E0E0"/>
<path opacity="0.07" d="M532.73 435.54L320.86 491V199.27L532.73 142.7V435.54Z" fill="black"/>
<path opacity="0.07" d="M448.42 337.92V434.43L532.73 411.13V314.63L448.42 337.92Z" fill="black"/>
<path opacity="0.1" d="M106.22 295.22L224.91 325.17L320.31 247.52V199.82L108.44 146.58L106.22 295.22Z" fill="black"/>
<path opacity="0.1" d="M534.39 295.22L415.7 325.17L320.31 247.52V199.82L532.17 146.58L534.39 295.22Z" fill="black"/>
<path d="M108.99 142.7L0.290009 232.55L212.15 285.79L320.86 199.27L108.99 142.7Z" fill="#E0E0E0"/>
<path d="M532.73 142.7L642.54 232.55L431.78 285.79L320.86 199.27L532.73 142.7Z" fill="#E0E0E0"/>
<path opacity="0.07" d="M532.73 142.7L642.54 232.55L431.78 285.79L320.86 199.27L532.73 142.7Z" fill="black"/>
</svg>
