<svg width="234" height="280" viewBox="0 0 234 280" fill="none" xmlns="http://www.w3.org/2000/svg">
<rect x="-23" width="280" height="280" fill="white"/>
<path fill-rule="evenodd" clip-rule="evenodd" d="M115.334 220.333H201.667V232H115.334C115.334 236.667 115.334 243.667 115.334 243.667L89.667 226.167L115.334 208.667C115.334 208.667 115.334 215.667 115.334 220.333ZM176 47.6667H110.667V59.3333H176C176 64 176 71 176 71L201.667 53.5L176 36C176 36 176 43 176 47.6667ZM110.667 134H201.667V145.667H110.667V134ZM94.3337 134H106V145.667H94.3337V134ZM94.3337 47.6667H106V59.3333H94.3337V47.6667Z" fill="#5E6C84"/>
<path d="M30.656 72L44.552 53.136L31.592 34.848H43.76L47.72 40.824L50.744 45.648H51.32L54.416 40.824L58.448 34.848H69.608L56.648 52.56L70.544 72H58.304L53.624 65.016L50.384 60.048H49.808L46.64 65.016L41.888 72H30.656Z" fill="#36B37E"/>
<path d="M59.96 120.848H70.832L53.336 163.976C52.232 166.712 50.768 168.8 48.944 170.24C47.12 171.68 44.624 172.4 41.456 172.4H34.112V164.12H43.04L45.344 157.784L30.368 120.848H41.816L47.216 136.472L50.6 147.272H51.176L54.416 136.472L59.96 120.848Z" fill="#00B8D9"/>
<path d="M33.752 244V235.144L54.416 215.128H34.472V206.848H66.728V215.704L46.064 235.72H67.448V244H33.752Z" fill="#FF5630"/>
</svg>
